<?xml version="1.0" encoding="UTF-8" standalone="no"?>
<svg
   version="1.1"
   id="Layer_1"
   x="0px"
   y="0px"
   viewBox="0 175 1000.0001 300.19197"
   enable-background="new 0 175 700 350"
   xml:space="preserve"
   sodipodi:docname="Taylor Swift.svg"
   width="1000"
   height="300.19196"
   inkscape:version="1.1.1 (3bf5ae0d25, 2021-09-20)"
   xmlns:inkscape="http://www.inkscape.org/namespaces/inkscape"
   xmlns:sodipodi="http://sodipodi.sourceforge.net/DTD/sodipodi-0.dtd"
   xmlns="http://www.w3.org/2000/svg"
   xmlns:svg="http://www.w3.org/2000/svg"
   xmlns:rdf="http://www.w3.org/1999/02/22-rdf-syntax-ns#"
   xmlns:cc="http://creativecommons.org/ns#"
   xmlns:dc="http://purl.org/dc/elements/1.1/"><metadata
   id="metadata30"><rdf:RDF><cc:Work
       rdf:about=""><dc:format>image/svg+xml</dc:format><dc:type
         rdf:resource="http://purl.org/dc/dcmitype/StillImage" /></cc:Work></rdf:RDF></metadata><defs
   id="defs28">
	

	
</defs><sodipodi:namedview
   pagecolor="#ffffff"
   bordercolor="#666666"
   borderopacity="1"
   objecttolerance="10"
   gridtolerance="10"
   guidetolerance="10"
   inkscape:pageopacity="0"
   inkscape:pageshadow="2"
   inkscape:window-width="1366"
   inkscape:window-height="705"
   id="namedview26"
   showgrid="false"
   inkscape:zoom="0.5"
   inkscape:cx="353"
   inkscape:cy="107"
   inkscape:window-x="-8"
   inkscape:window-y="-8"
   inkscape:window-maximized="1"
   inkscape:current-layer="Layer_1"
   inkscape:pagecheckerboard="0"
   showguides="false" />


<linearGradient
   id="SVGID_1_"
   gradientUnits="userSpaceOnUse"
   x1="1523.4332"
   y1="-788.17682"
   x2="1878.4935"
   y2="-354.37781"
   gradientTransform="matrix(0.55675227,0,0,0.55675227,-39.628478,450.14188)">
	
	
	
	
	
</linearGradient>


<path
   id="path12666"
   style="font-size:169.258px;line-height:1.25;font-family:Satisfaction;-inkscape-font-specification:Satisfaction;stroke-width:4.95582"
   d="m 561.81621,175 c -3.17229,0 -7.29498,0.19117 -12.37065,0.57187 -6.72526,0.50759 -10.78498,0.82469 -12.1808,0.95159 -17.51105,3.29935 -32.99207,10.08664 -46.44257,20.36537 -10.40512,7.99458 -19.16111,17.64034 -26.26705,28.93425 -0.25378,0.3807 -1.33338,2.47447 -3.23678,6.2814 -1.3958,2.66486 -2.15602,4.94752 -2.28289,6.85098 -0.1269,1.77657 -0.69818,4.5698 -1.71332,8.37673 -1.01513,3.80694 -1.52346,6.72608 -1.52346,8.75645 0,1.90347 0.31713,3.7431 0.95158,5.51967 1.52271,9.13665 3.42779,15.35499 5.71183,18.65434 2.03025,7.10628 6.66129,13.70469 13.89411,19.7958 1.52271,0.88827 4.05974,2.91909 7.61271,6.09154 3.0454,2.66486 5.71067,4.37628 7.99472,5.13766 l 9.13617,4.56809 c 2.79164,2.15726 6.34531,4.31629 10.65962,6.47354 3.67987,1.77657 7.42246,3.48798 11.22922,5.13767 9.26307,5.20282 18.59036,10.40691 27.98036,15.60972 11.03957,6.4718 18.84189,13.83261 23.41,22.08097 1.39581,5.96421 0.38144,10.4036 -3.04463,13.32225 -5.58323,3.68004 -12.81656,5.52195 -21.69896,5.52195 -6.85216,0 -13.06883,-1.14247 -18.65206,-3.42663 -1.90339,-1.01519 -2.85476,-1.96647 -2.85476,-2.85477 0,-0.38068 0.12592,-0.69779 0.37972,-0.95159 2.41093,-0.25379 5.33037,0.0633 8.75644,0.95159 4.18744,1.1421 7.0416,1.71104 8.5643,1.71104 1.26891,-0.3807 2.28326,-1.26675 3.04463,-2.66263 0.88825,-1.26898 1.65074,-2.53964 2.28518,-3.80864 0.25379,-4.56831 -0.82584,-7.48746 -3.23677,-8.75644 -4.18742,-1.52278 -8.43835,-2.98006 -12.75266,-4.37594 -5.07568,-1.77657 -9.45253,-2.85608 -13.13238,-3.23677 -4.18743,1.01518 -6.97863,2.85481 -8.37445,5.51967 -1.26891,2.79175 -2.6027,5.51972 -3.9985,8.18458 -1.3958,3.17245 -2.03004,6.0916 -1.90318,8.75644 0.25379,5.07591 2.85609,8.43807 7.80485,10.08776 2.53785,2.03037 5.96331,3.80704 10.27763,5.32981 3.55295,1.14209 7.16962,2.34752 10.84948,3.61651 0.50756,0.25379 1.26777,0.25379 2.2829,0 1.14204,-0.12689 1.96748,0.0643 2.47505,0.57186 18.39928,0.88828 31.40621,-4.88476 39.01971,-17.32075 3.42608,-3.68003 5.13995,-8.56702 5.13995,-14.65813 10e-6,-5.2028 -1.14259,-10.84991 -3.42663,-16.94102 -4.94878,-7.48698 -12.30804,-14.27428 -22.07869,-20.36538 -8.62864,-4.69522 -17.25871,-9.32807 -25.88733,-13.89639 0,-0.1269 -1.77684,-0.95227 -5.32982,-2.47505 -2.03025,-0.8883 -3.67887,-1.96551 -4.9478,-3.23449 -11.92783,-3.93383 -21.76115,-9.45502 -29.50155,-16.56131 -7.35971,-4.31452 -13.19857,-9.77045 -17.51288,-16.36915 -4.56811,-7.10629 -6.85099,-14.59303 -6.85099,-22.4607 0,-2.03036 0.12594,-3.99821 0.37973,-5.90168 -0.3807,-10.15184 5.58409,-21.76316 17.89261,-34.83364 12.68915,-9.13665 27.7248,-16.11513 45.10897,-20.93725 5.45634,-1.01518 11.04103,-1.52345 16.75116,-1.52345 15.22701,0 29.62839,3.2992 43.20579,9.89789 4.06054,3.04554 8.12027,6.09062 12.18079,9.13617 4.82191,3.80694 8.37559,7.55146 10.65964,11.2315 1.90336,3.93383 3.87141,7.86723 5.90168,11.80107 1.90337,4.69523 2.91773,9.13691 3.04462,13.32453 0,0.63449 0.063,1.90288 0.18986,3.80636 0.1269,1.77656 0.18987,3.17317 0.18987,4.18836 0,4.18763 -1.39447,6.91561 -4.18608,8.18458 -2.79163,1.14208 -3.74301,3.04468 -2.85477,5.70953 0.88824,2.28417 3.10814,3.23775 6.66112,2.85705 4.56809,-3.93384 7.16811,-6.53588 7.80258,-7.80485 2.53783,-7.48698 3.80863,-14.91076 3.80863,-22.27084 0,-5.20282 -0.63426,-10.21573 -1.90317,-15.03785 -1.6496,-9.51735 -6.72596,-18.46367 -15.22771,-26.83892 -7.48661,-7.3601 -16.24262,-13.19609 -26.26706,-17.51061 l -15.60743,-4.76023 C 573.36442,175.69716 568.0339,175 561.81621,175 Z m -295.19613,6.14873 c -1.17519,0.0341 -2.11464,0.11966 -2.81816,0.25619 -38.24591,2.45769 -63.54183,4.18499 -77.99597,7.05228 -1.27914,0.54616 -3.58244,0.88597 -6.90817,1.0225 -3.19782,0.13654 -5.49884,0.61502 -6.90588,1.43425 -0.63956,-0.27307 -1.27964,-0.40946 -1.9192,-0.40946 -1.0233,0 -2.4296,0.34211 -4.22038,1.02479 -1.79078,0.54616 -3.19938,0.81892 -4.22268,0.81892 -0.63956,0 -1.27734,-0.13638 -1.9169,-0.40946 -1.79078,1.50192 -4.92685,2.3202 -9.40381,2.45675 -4.47694,0.13652 -7.61073,0.75139 -9.40151,1.8437 -2.81408,-0.13655 -6.77834,0.54537 -11.89486,2.04729 -4.98858,1.36538 -8.89092,1.98024 -11.705,1.8437 l -10.16782,1.72704 c -3.96529,1.09231 -7.356018,1.63783 -10.170098,1.63783 -1.918693,1.09231 -5.116721,2.04697 -9.593662,2.86621 -4.349025,0.68269 -7.482819,1.57031 -9.401515,2.66262 -14.582054,2.86731 -25.965315,4.71851 -35.558771,8.13196 -1.918684,0.40964 -6.013711,1.77572 -12.281443,4.09687 -4.988586,1.91153 -9.081337,2.8662 -12.279156,2.8662 -2.174518,0 -4.285125,-0.33982 -6.331726,-1.0225 -6.6514593,1.50191 -10.4872641,4.09545 -11.51056469,7.78198 -0.12791696,3.00384 0.70255507,6.14517 2.49334569,9.42211 1.790779,3.2769 4.029847,4.91349 6.7160212,4.91349 1.0233008,0 2.4296098,-0.33982 4.2203888,-1.0225 1.790779,-0.6827 3.135132,-1.09183 4.030527,-1.22837 2.302423,-1.50192 5.755107,-2.80099 10.359966,-3.89328 5.372337,-1.50192 8.953482,-2.66231 10.744261,-3.48154 14.709971,-4.91537 22.897737,-7.57824 24.560599,-7.98786 19.058995,-5.46152 32.745567,-8.13102 42.466937,-10.58871 5.62816,-0.95577 16.24542,-2.40801 31.85077,-6.23108 13.175,-3.14038 23.91847,-5.12133 32.23279,-5.94056 8.18642,-2.04807 14.38976,-3.34484 18.61088,-3.89099 5.62816,-0.27308 14.90334,-0.42855 27.82253,-2.34009 11.51214,-1.77499 19.66631,-2.72965 26.57359,-2.8662 1.53495,0.27308 3.19819,0.40945 4.98897,0.40945 1.66286,0 4.22084,-0.2057 7.67448,-0.61533 3.58156,-0.40961 6.20375,-0.61304 7.86661,-0.61304 5.11652,0 9.27577,1.29677 12.47359,3.89099 1.40704,0.54615 4.4766,-0.002 9.20937,-1.64011 3.70947,-3.14039 5.30849,-5.73392 4.79684,-7.78199 -0.76748,-2.73076 -2.81386,-5.12086 -6.13958,-7.16894 -7.77071,-0.81923 -13.42001,-1.17752 -16.94561,-1.07511 z m 56.8094,11.60892 c -2.61836,0 -5.0798,0.58491 -7.38397,1.7545 -23.35574,17.54377 -37.5472,47.42097 -42.57444,89.63234 0.10474,0.63796 0.15784,1.32817 0.15784,2.07246 0,1.2759 -0.31403,3.13822 -0.94244,5.58372 -0.52369,2.33917 -0.7869,4.04008 -0.7869,5.10335 0,1.70121 0.42024,3.24304 1.25811,4.62527 -0.10473,0.85061 -0.15783,2.02042 -0.15783,3.50898 0,6.3701 1.35522,14.47652 4.01909,24.25408 -5.42219,1.89673 -9.08058,3.32949 -10.76943,4.24555 -0.2062,0.10564 -0.4114,0.16012 -0.61761,0.16012 -1.34031,-1.16197 -2.2159,-2.95742 -2.62831,-5.387 -0.2062,-1.90138 -0.41372,-3.85575 -0.61991,-5.86279 -1.03102,-2.74645 -3.4024,-4.33083 -7.11404,-4.75337 -2.06203,-0.21127 -3.76305,-0.10681 -5.10335,0.31567 h -0.46435 c -1.54652,0 -3.66024,0.95106 -6.34088,2.85249 -2.68062,1.90137 -5.05201,2.64136 -7.11404,2.21884 -5.25816,-4.22533 -10.20614,-6.33859 -14.8457,-6.33859 -0.87493,0 -2.36755,0.24524 -3.08809,0.42319 -4.31111,1.06475 -7.07449,2.25933 -11.12399,4.33476 -2.74412,1.40641 -7.87217,3.00874 -11.71872,3.12469 -3.84654,0.11595 -7.77181,-0.91302 -8.47509,-2.82732 -0.7033,-1.91431 -0.2991,-3.57409 -0.19673,-5.62032 0.10237,-2.15394 0.15327,-3.7702 0.15327,-4.84715 0,-1.29238 -0.051,-2.47549 -0.15327,-3.55246 l -2.61229,-4.68474 c -3.78766,-1.83084 -8.0854,-2.74725 -12.89676,-2.74725 -5.32321,0 -10.69883,1.07599 -16.12441,3.22991 -5.93742,2.36932 -10.4919,6.19227 -13.66536,11.46939 -2.45686,4.20015 -3.68513,8.61581 -3.68512,13.24676 0,3.76937 0.71477,6.08549 2.14794,6.94705 3.89003,2.36932 8.34501,3.55474 13.36112,3.55474 5.63032,0 12.07922,-1.4544 19.34745,-4.36221 5.83505,3.98477 12.51097,3.16148 19.42065,1.00877 6.90968,-2.15273 21.55181,-11.15081 25.13475,-12.17394 0.46566,-0.13296 0.78004,-0.22944 1.16433,-0.34082 2.09417,1.06745 3.41262,3.11998 3.93902,6.17617 0.82481,4.33098 1.75286,7.02531 2.78387,8.08165 0.9279,0.21126 1.85594,0.31569 2.78385,0.31567 5.25816,0 10.30874,-3.22095 15.1545,-9.66458 1.64962,-1.05633 2.88778,-1.58521 3.71258,-1.58521 0.82481,0 1.39028,0.42218 1.69959,1.26725 0.10307,11.83091 -0.10214,18.06399 -0.61762,18.69781 -22.47607,17.00692 -38.25035,34.96395 -47.32325,53.87228 -9.07291,18.90833 -13.61046,34.27768 -13.61046,46.10859 0,10.03514 2.88899,18.5404 8.66266,25.51219 3.91784,2.32394 8.65834,3.48382 14.2258,3.48382 3.91784,0 7.99253,-0.5788 12.21968,-1.74077 11.44422,-6.86614 19.94929,-17.80014 25.51676,-32.80006 0.3093,-1.16196 1.7002,-4.27852 4.17465,-9.34892 1.75271,-3.80279 2.57814,-7.18264 2.47504,-10.14036 1.95893,-4.85912 3.40226,-11.51441 4.33018,-19.96506 1.34031,-11.72529 2.26836,-18.69609 2.78387,-20.91438 0.41239,-2.85209 0.46484,-7.81859 0.15554,-14.89602 -0.20621,-7.07741 -9.8e-4,-12.25273 0.61761,-15.52737 1.13412,-5.28166 3.71071,-9.24261 7.73166,-11.88342 0.72171,-0.6338 1.3921,-1.26709 2.01069,-1.90089 1.54652,-1.05634 3.45504,-1.58522 5.72326,-1.58522 0.34055,0 0.65808,-0.0194 0.95845,-0.0503 0.72244,2.40021 1.49062,4.85798 2.3561,7.44115 1.98995,4.25304 4.76543,8.18599 8.3264,11.80107 3.66571,3.50875 7.48721,5.9537 11.46711,7.33592 0.73314,0.53164 2.09547,0.90364 4.08542,1.11629 2.09468,0.21266 3.56094,0.79755 4.39882,1.7545 2.82782,0.63795 5.76032,0.95845 8.79762,0.95845 4.08463,0 8.79742,-0.6387 14.13886,-1.91462 1.25683,-0.31898 1.88489,-1.27589 1.88489,-2.87077 0,-2.0202 -0.62806,-2.92332 -1.88489,-2.71066 -4.2941,0.74427 -8.06479,1.11628 -11.31155,1.11628 -5.02724,0 -9.05887,-0.85161 -12.09615,-2.55282 -10.68291,-6.27322 -17.01896,-15.04453 -19.0089,-26.31509 13.82491,-15.2046 25.3448,-33.22685 34.56142,-54.06671 9.74029,-21.90314 15.18734,-41.73389 16.33942,-59.49032 0.52368,-8.82504 -0.94256,-15.09762 -4.39881,-18.81904 -4.18937,-2.97711 -8.43111,-4.46515 -12.72521,-4.46515 z m -1.679,5.74156 c 0.80514,-0.0797 1.99287,0.0794 3.56387,0.47808 1.67575,1.27592 2.72405,3.08445 3.143,5.4236 0.41893,2.33918 0.78378,4.625 1.09799,6.85785 -0.62842,26.79411 -9.31972,55.9811 -26.0772,87.55989 -7.3314,10.41994 -12.25429,16.79785 -14.76793,19.13701 -1.25681,0.21265 -2.35592,-0.90337 -3.29854,-3.34887 -0.10472,-29.77125 3.76987,-54.96918 11.62494,-75.59641 5.34145,-18.18172 13.35388,-31.6323 24.03677,-40.35102 0.18329,-0.0797 0.40871,-0.13355 0.6771,-0.16013 z m 491.93483,10.6825 c -6.79458,-0.32079 -13.37315,2.13752 -19.73633,7.3771 -3.77476,3.20793 -8.57343,8.60785 -14.39734,16.19989 -10.42232,13.61226 -15.995,30.09131 -16.73287,49.42772 -5.92315,-0.47913 -10.97331,-1.18646 -17.20638,-2.17081 -2.41176,0.42471 -5.55831,-0.31678 -9.43811,-2.228 -4.29924,-2.0174 -7.33982,-3.02633 -9.12245,-3.02633 -2.62149,0 -5.03322,1.22013 -7.23527,3.66224 -0.62916,0.63706 -0.94473,1.38084 -0.94473,2.23029 0,1.27413 1.05037,2.86732 3.14756,4.77853 13.38619,2.98009 23.58196,4.59491 40.86342,4.87689 0.0921,2.81251 0.33189,8.70726 0.95159,22.50874 0,0.32015 -0.17587,4.71541 -0.31567,8.2898 -1.4127,1.10883 -2.77261,2.20363 -4.01909,3.33056 -10.06652,4.25336 -19.24125,6.37977 -27.52516,6.37977 -4.9284,0 -9.54225,-0.78451 -13.8415,-2.35152 -4.71868,-0.89546 -8.96628,-3.58155 -12.74123,-8.05877 -3.77494,-4.47723 -5.66149,-9.23469 -5.66149,-14.27155 0,-3.13406 1.78287,-7.66671 5.3481,-13.59903 -1.15347,-0.89544 -2.30747,-1.34274 -3.46094,-1.34274 -1.36316,0 -3.40865,0.95195 -6.13501,2.85477 -2.6215,1.79087 -4.71766,2.63047 -6.29055,2.5185 -3.25065,4.92495 -4.98056,8.56299 -5.19027,10.91354 -0.41945,1.34316 -0.62906,2.68506 -0.62906,4.02824 0,0.11321 0.0192,0.23707 0.0229,0.35226 -3.39839,-0.14162 -7.83206,-0.36439 -13.55098,-0.68852 -0.52431,0 -1.36277,-0.11012 -2.51623,-0.33397 -1.15345,-0.3358 -2.04489,-0.50554 -2.67405,-0.50554 -1.36318,0 -2.72455,0.44958 -4.08772,1.34504 -1.36318,0.78352 -2.88576,3.02003 -4.5635,6.71373 -1.57291,3.6937 -3.0932,5.87744 -4.56122,6.54904 -2.20206,0.33579 -3.93197,-0.72856 -5.19028,-3.19103 -1.15345,-2.46248 -2.41116,-3.74931 -3.77434,-3.86125 -1.36317,-4.47722 -5.66145,-6.99587 -12.89677,-7.55553 -2.72635,1.00738 -5.50663,3.80587 -8.33784,8.39503 -2.72633,4.58915 -5.61029,7.2202 -8.65122,7.89178 -1.04859,0.33578 -2.0437,0.50325 -2.98744,0.50325 -2.93607,0 -5.29483,-1.62177 -7.07745,-4.86775 -1.36316,-2.9102 -2.72682,-5.82109 -4.08999,-8.73128 -1.88748,-3.02211 -4.45586,-4.36632 -7.7065,-4.03053 -1.67776,1.23124 -2.51851,2.91034 -2.51851,5.03702 0,2.68634 1.31068,5.98948 3.93217,9.90704 1.99233,3.02213 3.98482,5.37332 5.97717,7.05229 1.99233,1.23123 3.98482,2.46074 5.97716,3.69197 2.41177,1.23124 4.82351,1.84829 7.23529,1.84829 2.41176,0 5.13907,-0.67211 8.17999,-2.01527 1.78263,-0.11193 4.87619,-1.67864 9.28028,-4.70076 4.40411,-3.02212 7.44469,-4.53377 9.12244,-4.53377 1.15345,0 2.09787,0.44732 2.8319,1.34275 1.7826,2.46247 3.51251,4.92606 5.19027,7.38854 2.30691,2.57441 4.92826,3.86125 7.86433,3.86125 2.0972,0 4.45597,-0.5597 7.07745,-1.679 1.99235,-1.34318 4.61368,-4.47658 7.86434,-9.40152 2.93607,-4.70109 5.55741,-7.55692 7.86432,-8.5643 3.07206,-0.25619 5.69866,-0.86786 7.89178,-1.82769 0.1417,0.38233 0.2748,0.76064 0.44378,1.15746 1.0486,2.01474 2.09896,4.02874 3.14756,6.0435 10.06652,8.17092 23.53955,12.25629 40.42194,12.25629 5.87214,0 12.74109,-0.50237 20.60556,-1.50973 1.5729,0 3.51243,-0.55971 5.81933,-1.67901 1.88747,-1.00737 3.82699,-2.01667 5.81933,-3.02404 0.99547,-0.5461 1.62195,-0.86622 2.48419,-1.32903 -0.15638,4.50005 -0.27694,8.50484 -0.19214,8.84109 0,4.06335 0.21595,7.48599 0.64736,10.26618 0.53925,3.9564 0.91659,7.75141 1.13229,11.38704 l -0.16241,0.32025 c -4.63756,1.0693 -9.3271,2.08683 -14.07253,3.0492 -5.17682,1.49704 -9.32991,3.84894 -12.45758,7.05686 -0.75495,1.17623 -1.1323,2.45972 -1.1323,3.84982 0,-0.64157 0.43191,1.60396 1.29471,6.7366 11.21642,18.07123 22.80963,32.9875 34.78102,44.74983 h 5.01414 c 2.15701,-0.64158 3.505,-1.87188 4.04426,-3.68969 l 0.64735,-5.45334 c -1.61775,-21.92071 -2.96575,-38.33324 -4.04424,-49.24013 0.32354,-0.53464 0.9714,-0.96248 1.94206,-1.28328 0.32356,-0.10693 1.1851,-0.322 2.58714,-0.64279 1.07851,0 3.50625,-0.26595 7.28101,-0.80061 19.41306,-2.88711 28.58639,-4.1706 30.09629,-3.84982 2.37272,0.10693 5.62286,-0.26769 12.09387,-1.12314 l 0.16241,-6.57649 c -1.61776,-0.10693 -2.7498,-0.2665 -3.3969,-0.48036 -3.55907,0.85544 -8.38101,1.54922 -19.38176,2.08388 -12.07922,0.64157 -18.5487,1.01622 -19.4115,1.12315 -1.18636,0 -3.07538,0.32145 -5.66377,0.96302 -2.58841,0.74852 -4.42059,1.12316 -5.49908,1.12316 -0.97065,0 -1.72537,-0.16186 -2.26461,-0.48266 -1.20752,-7.78181 -2.69344,-18.24101 -2.10677,-34.57516 8.73593,-6.18998 16.91738,-18.1384 23.8675,-32.16645 9.53302,-0.15308 17.49643,-0.20553 23.21556,-0.11208 l 1.25811,1.27412 c -0.10485,1.59268 -0.63004,5.52053 -1.57378,11.78507 -0.62915,4.77804 -0.94243,8.70816 -0.94243,11.78734 0,1.69886 0.10366,3.29203 0.31338,4.77853 1.57289,3.29154 2.57029,5.78575 2.98973,7.48461 2.72635,8.60045 11.06262,14.65179 25.00894,18.15568 4.50896,-0.74327 9.01687,-1.43311 13.52583,-2.07016 5.13812,-1.27415 9.27976,-3.55718 12.42556,-6.8487 1.46803,-1.5927 2.20284,-3.71615 2.20284,-6.37061 0,-1.48651 -0.31557,-2.22801 -0.94473,-2.22801 -0.20972,0 -0.523,0.21119 -0.94244,0.63592 -3.46038,3.61007 -7.60202,6.37174 -12.42556,8.28295 -2.51663,1.06178 -5.29691,1.59207 -8.33784,1.59207 -5.24298,0 -9.54127,-1.48757 -12.89677,-4.46057 -5.34784,-4.67185 -8.02217,-11.89165 -8.02217,-21.66008 10e-6,-3.50389 0.68183,-10.03384 2.045,-19.58991 0.62915,-1.91123 1.5206,-2.92023 2.67406,-3.02633 14.15604,-0.95561 29.51791,-1.43196 46.08572,-1.43196 15.72895,0 41.36659,0.63589 76.914,1.91004 16.98725,1.48649 29.78074,2.86615 38.3792,4.14032 v -2.70608 c -3.98464,-2.76064 -9.01772,-4.61895 -15.09959,-5.57457 -0.62915,-0.10617 -6.03077,-0.63646 -16.20216,-1.59208 -17.51156,-1.69885 -38.79796,-2.60214 -63.8594,-2.70837 -21.49623,0 -42.99224,0.054 -64.48845,0.16012 l -0.78688,-0.6382 c -0.20973,-3.29154 0.4721,-5.83969 2.045,-7.64474 3.56523,-9.98078 6.08293,-19.53753 7.55095,-28.6689 -1.46802,-2.22976 -3.30389,-3.34428 -5.50595,-3.34428 -1.57289,0 -2.77761,0.74378 -3.61649,2.23028 -1.0486,4.24716 -3.09408,10.08726 -6.13501,17.51976 -3.14579,7.75104 -5.24195,13.59115 -6.29055,17.51976 -1.36317,2.86681 -2.7798,4.30045 -4.24783,4.30045 h -20.98071 c 6.91974,-15.51997 12.32859,-32.70448 15.34666,-47.23861 1.18635,-5.45345 1.77965,-10.31916 1.77965,-14.59637 0,-7.69897 -1.9413,-11.65351 -5.8239,-11.86741 z m -93.64001,5.79188 c -4.56507,-0.18365 -8.71509,2.97792 -12.45072,9.48387 -1.15346,3.02213 -1.72932,5.59582 -1.72932,7.72251 0,2.46245 0.7325,4.58886 2.20055,6.37976 2.09719,0.55965 4.24862,0.8395 6.45067,0.8395 5.03327,0 9.27857,-1.23181 12.73894,-3.69427 0.31457,-1.34317 -0.10471,-2.68507 -1.25812,-4.02824 -1.36316,-1.90282 -2.14865,-3.13463 -2.35838,-3.69427 -0.31459,-1.00738 -0.63014,-3.18884 -0.94472,-6.54674 -0.31457,-2.9102 -0.89046,-5.03889 -1.72933,-6.38205 -0.30802,-0.0419 -0.61522,-0.0678 -0.91957,-0.0801 z m 86.65406,3.95047 c 0.99106,0.0802 1.64824,0.52247 1.97181,1.32445 0.32354,1.60395 0.48494,3.2066 0.48494,4.81055 0,2.88712 -0.64787,6.41614 -1.94206,10.58643 -2.26485,7.27125 -3.44916,11.12172 -3.55702,11.54945 -4.08388,15.9885 -7.35926,27.95809 -10.55212,35.68916 h -12.20825 c -1.12676,-0.007 -1.90732,-0.0493 -2.95084,-0.0641 l 1.12086,-15.09504 c 2.15701,-17.42963 6.73976,-30.47503 13.75001,-39.13638 4.96113,-4.9188 9.22105,-8.12637 12.78011,-9.6234 0.40444,-0.0535 0.77221,-0.0679 1.10256,-0.0412 z m -689.99112,17.67302 c -0.30379,0.0256 -0.61579,0.0897 -0.93557,0.19214 -5.75608,3.55 -8.69716,10.92374 -8.82507,22.11987 -0.25583,10.64998 -0.3843,16.1121 -0.3843,16.38517 0.12791,6.69037 0.12791,18.90909 0,36.65905 0,15.42881 0.19271,27.64981 0.57644,36.66133 l 0.3843,15.97342 c 0.25582,6.41729 0.95784,11.60665 2.10905,15.56626 1.66286,3.54999 4.34929,4.9161 8.05876,4.09687 6.52354,-5.18845 10.55436,-10.40708 12.0893,-16.82437 0.25584,-0.81924 0.38201,-1.57047 0.38201,-2.25317 0,-1.36538 -1.08741,-2.66214 -3.26193,-3.89098 -2.17451,-1.22885 -3.45235,-2.45628 -3.8361,-3.68513 -1.53494,-9.42113 -2.11077,-21.54581 -1.72704,-35.19963 1.02331,-31.40378 1.78954,-54.68311 2.3012,-69.83885 -0.25582,-1.0923 -0.31777,-3.34373 -0.18986,-6.75719 0.25583,-2.86731 -0.12958,-4.77893 -1.15288,-5.7347 -0.8954,-0.95577 -1.91858,-1.84338 -3.0698,-2.66261 -0.76748,-0.61443 -1.60713,-0.88428 -2.51851,-0.80748 z m 673.08441,53.52001 c -4.62002,9.27868 -9.36166,15.60675 -13.8964,20.32648 0.0479,-0.55863 0.0689,-1.04935 0.12124,-1.61953 l 1.37705,-18.56055 c 3.66912,-0.0325 7.45918,-0.0688 12.39811,-0.1464 z M 390.425,296.91775 c -0.9648,-0.0404 -1.67334,0.10238 -2.12735,0.42547 -1.00893,0.75387 -2.11985,2.7987 -3.33056,6.13728 -0.50447,1.07698 -1.36269,3.4478 -2.57342,7.10947 -0.30267,0.86158 -0.45292,1.77571 -0.45292,2.74496 0,1.29236 0.40295,2.85392 1.21008,4.68475 0.16694,0.35641 0.24074,0.53091 0.38659,0.84637 -6.51743,2.22326 -12.80589,3.35343 -18.85794,3.35343 -2.76313,0 -5.41895,-0.16185 -7.96955,-0.48494 -2.44433,-0.32309 -4.67623,-1.99179 -6.69543,-5.00728 -1.91296,-3.1232 -3.88017,-4.89902 -5.8994,-5.32981 -2.76314,-0.43078 -5.52665,-0.64736 -8.28981,-0.64736 -8.3957,0 -15.56914,2.20898 -21.52054,6.62452 -5.42002,4.09247 -8.12968,8.50813 -8.12968,13.24676 0,2.90781 1.2225,5.27635 3.66682,7.10718 2.97571,2.26162 6.58933,3.39232 10.84034,3.39232 7.65179,0 17.53488,-3.82294 29.65022,-11.46938 6.58903,-0.96927 13.17699,-1.88568 19.76606,-2.74726 5.99324,-0.92789 11.09543,-2.15576 15.32836,-3.67825 0.34213,0.18844 0.93991,0.28593 1.81167,0.28593 2.72412,0 6.65783,-0.69985 11.80337,-2.0999 1.51338,0.21539 2.37161,1.02467 2.5734,2.42472 -0.70625,5.16943 -1.05909,8.88294 -1.05909,11.14457 0,5.60021 1.56393,9.80159 4.6916,12.60169 4.43928,1.61544 8.22275,1.72258 11.35044,0.32253 2.825,-2.9078 4.38892,-4.84548 4.69161,-5.81475 0.40357,-0.96927 0.6039,-1.77856 0.6039,-2.42472 0,-1.18466 -0.65562,-1.77509 -1.96723,-1.77509 -0.30268,0 -0.85815,0.0524 -1.66529,0.16013 -0.80713,0.1077 -1.41266,0.16241 -1.81625,0.16241 -1.3116,0 -2.26999,-0.32372 -2.87536,-0.96989 -2.21964,-1.83083 -3.32826,-4.73736 -3.32826,-8.72214 0,-1.07696 0.25268,-3.71678 0.75715,-7.91694 0,-0.64617 0.0501,-1.66973 0.15097,-3.06979 0.20178,-1.50774 0.30195,-2.63845 0.30195,-3.39232 0,-2.36933 -0.75578,-4.03802 -2.26918,-5.00728 -1.00891,-0.64619 -2.11984,-0.96989 -3.33056,-0.96989 -2.01786,0 -4.08487,0.69985 -6.20362,2.0999 -1.10983,0.32309 -2.01813,0.48494 -2.72439,0.48494 -2.01785,0 -3.07868,-1.88526 -3.17958,-5.65463 -0.10089,-4.41556 -0.85667,-7.1078 -2.26917,-8.07707 -0.37836,-0.0538 -0.72835,-0.0872 -1.04995,-0.10064 z M 164.83896,306.9689 c 5.42558,0 8.70093,1.45437 9.82699,4.36222 0,1.61541 -0.97152,3.12457 -2.91653,4.52462 -1.94503,1.29235 -3.0206,2.53019 -3.22533,3.71485 -0.81895,2.36932 -1.6378,4.68542 -2.45675,6.94705 -1.22844,2.47702 -2.91699,4.19814 -5.06675,5.16741 -0.61422,0.10763 -1.22721,0.16242 -1.84142,0.16242 -3.3782,0 -5.47845,-1.45442 -6.29741,-4.36222 -0.3071,-1.07696 -0.45979,-2.09822 -0.45979,-3.06751 0,-1.61544 1.22826,-5.27882 3.68513,-10.98672 2.86635,-3.23089 5.78315,-5.38515 8.75186,-6.46212 z m 159.34996,11.05078 c 0.95647,0.1077 2.12512,0.80754 3.5067,2.0999 1.38157,1.18466 2.49866,1.88451 3.34886,2.0999 4.46354,1.29236 7.11936,2.90862 7.96955,4.84716 -0.53136,2.80009 -2.23164,4.89964 -5.10106,6.2997 -2.97571,1.18466 -6.53549,0.91567 -10.68021,-0.80747 -1.91296,-1.50775 -3.18931,-3.98571 -3.82695,-7.43201 0.21255,-3.33857 1.80741,-5.70712 4.78311,-7.10718 z m -76.65094,36.59272 c 0.72171,0 1.28948,0.31779 1.70189,0.95159 0.51551,0.63378 0.66828,1.37379 0.46207,2.21884 0.10306,2.32394 0.15554,4.64601 0.15554,6.96993 0,7.18306 -0.67039,15.63382 -2.01069,25.35206 -1.03102,8.34502 -2.1141,16.63688 -3.2482,24.87628 -4.63957,15.3168 -8.14419,25.29973 -10.51552,29.9476 -3.91784,11.8309 -10.6193,20.07056 -20.10461,24.71843 -1.75273,0.31689 -3.24851,0.4758 -4.48573,0.4758 -3.81474,0 -6.18613,-1.26889 -7.11404,-3.80407 -2.98993,-7.60559 -4.38086,-14.62858 -4.17463,-21.07221 0.20619,-7.49995 1.80461,-15.68741 4.79453,-24.5606 0.82482,-2.5352 3.76168,-10.14158 8.81364,-22.81754 5.46436,-7.39433 10.98011,-14.83953 16.54758,-22.33946 6.70157,-8.66193 13.09521,-15.63499 19.17817,-20.91665 z m 515.98761,14.23265 c 0.68081,0.007 1.33108,0.0357 1.95122,0.0892 l 0.32253,0.48266 c 2.04916,19.88904 3.50628,32.82574 4.36908,38.81384 -6.36318,-7.91284 -11.05503,-13.95336 -14.07483,-18.12364 l -9.38321,-16.03977 c -0.4314,-1.28315 -0.0541,-2.35159 1.1323,-3.20704 2.91196,-0.42773 5.8239,-0.90874 8.73586,-1.44339 2.58841,-0.40094 4.90464,-0.59191 6.94705,-0.57187 z" /></svg>
